<?xml version="1.0" encoding="UTF-8"?><svg id="Layer_2" xmlns="http://www.w3.org/2000/svg" viewBox="0 0 577.9 509.73"><defs><style>.cls-1{stroke-width:6px;}.cls-1,.cls-2{stroke:#fff;stroke-miterlimit:10;}.cls-1,.cls-3{fill:#4b00df;}.cls-4{fill:#fff;}.cls-5{fill:#1c1c1c;}.cls-2{fill:#0b0b0b;stroke-width:8px;}</style></defs><g id="Layer_1-2"><path class="cls-3" d="M126.91,19.79h0c50.62,0,91.72,41.1,91.72,91.72V460.29c0,50.62-41.1,91.72-91.72,91.72h0V19.79h0Z" transform="translate(166.1 -48.08) rotate(30)"/><rect class="cls-1" x="240.62" y="76.07" width="75.16" height="478.78" rx="37.58" ry="37.58" transform="translate(-37.24 593.67) rotate(-90)"/><rect class="cls-1" x="240.62" y="113.66" width="75.16" height="478.78" rx="37.58" ry="37.58" transform="translate(-74.83 631.26) rotate(-90)"/><path class="cls-2" d="M420.65,9.56h0V552.74h0c-50.62,0-91.72-41.1-91.72-91.72V101.28c0-50.62,41.1-91.72,91.72-91.72Z" transform="translate(-90.36 225.07) rotate(-30)"/><path class="cls-2" d="M442.78-7.99h0V535.19h0c-50.62,0-91.72-41.1-91.72-91.72V83.72c0-50.62,41.1-91.72,91.72-91.72Z" transform="translate(-78.62 233.78) rotate(-30)"/><path class="cls-4" d="M333.04,98.96c0,17.22-13.96,31.17-31.17,31.17s-31.17-13.96-31.17-31.17,13.96-31.17,31.17-31.17,31.17,13.96,31.17,31.17Z"/><path class="cls-5" d="M315.51,98.96c0,7.81-6.33,14.15-14.15,14.15s-14.15-6.33-14.15-14.15,6.33-14.15,14.15-14.15,14.15,6.33,14.15,14.15Z"/></g></svg>